<svg width="35" height="35" viewBox="0 0 35 35" fill="none" xmlns="http://www.w3.org/2000/svg">
<path d="M25 0H10C4.47715 0 0 4.47715 0 10V25C0 30.5228 4.47715 35 10 35H25C30.5228 35 35 30.5228 35 25V10C35 4.47715 30.5228 0 25 0Z" fill="#FF652F"/>
<path d="M17.508 11C17.9036 11 18.2902 11.1173 18.6191 11.3371C18.948 11.5568 19.2044 11.8692 19.3558 12.2346C19.5071 12.6001 19.5467 13.0022 19.4696 13.3902C19.3924 13.7781 19.2019 14.1345 18.9222 14.4142C18.6425 14.6939 18.2861 14.8844 17.8982 14.9616C17.5102 15.0387 17.1081 14.9991 16.7426 14.8478C16.3772 14.6964 16.0648 14.44 15.8451 14.1111C15.6253 13.7822 15.508 13.3956 15.508 13C15.5086 12.4698 15.7195 11.9614 16.0945 11.5865C16.4694 11.2115 16.9778 11.0006 17.508 11ZM17.508 8C16.5191 8 15.5524 8.29324 14.7302 8.84265C13.9079 9.3921 13.267 10.173 12.8886 11.0866C12.5102 12.0002 12.4111 13.0055 12.6041 13.9755C12.797 14.9454 13.2732 15.8363 13.9725 16.5355C14.6717 17.2348 15.5626 17.711 16.5326 17.9039C17.5025 18.0969 18.5078 17.9978 19.4214 17.6194C20.335 17.241 21.1159 16.6001 21.6654 15.7779C22.2148 14.9556 22.508 13.9889 22.508 13C22.508 11.6739 21.9812 10.4021 21.0435 9.4645C20.1059 8.52678 18.8341 8 17.508 8Z" fill="white"/>
<path d="M17.508 22.25C15.8069 22.2509 14.1374 21.7899 12.6779 20.916C12.36 20.7246 12.1311 20.4148 12.0415 20.0547C11.9518 19.6947 12.0087 19.3138 12.1996 18.9956C12.3906 18.6775 12.7 18.4481 13.06 18.3579C13.4199 18.2677 13.8009 18.3241 14.1193 18.5146C15.1656 19.1259 16.3578 19.4427 17.5696 19.4314C18.7813 19.4202 19.9674 19.0813 21.0021 18.4506C21.158 18.3525 21.3317 18.2861 21.5133 18.2553C21.6949 18.2244 21.8808 18.2297 22.0603 18.2708C22.2399 18.3119 22.4095 18.3881 22.5596 18.4949C22.7097 18.6017 22.8372 18.737 22.9348 18.8932C23.0325 19.0494 23.0983 19.2233 23.1287 19.405C23.159 19.5867 23.1532 19.7725 23.1115 19.952C23.0699 20.1314 22.9932 20.3008 22.886 20.4506C22.7787 20.6003 22.643 20.7274 22.4865 20.8246C20.9937 21.7576 19.2684 22.2516 17.508 22.25Z" fill="white"/>
<path d="M21.5077 27.6001C21.3237 27.6003 21.1415 27.5642 20.9716 27.4938C20.8017 27.4235 20.6473 27.3202 20.5174 27.1899L17.5077 24.1802L14.4979 27.1899C14.368 27.3204 14.2137 27.424 14.0437 27.4947C13.8738 27.5654 13.6915 27.602 13.5074 27.6022C13.3233 27.6024 13.141 27.5663 12.9709 27.496C12.8008 27.4257 12.6462 27.3225 12.516 27.1924C12.3858 27.0622 12.2825 26.9077 12.2121 26.7376C12.1417 26.5675 12.1055 26.3852 12.1057 26.2011C12.1058 26.017 12.1422 25.8348 12.2129 25.6648C12.2835 25.4948 12.387 25.3404 12.5174 25.2105L17.5077 20.2202L22.4979 25.2104C22.6936 25.4063 22.8269 25.6557 22.8809 25.9273C22.9349 26.1988 22.9071 26.4803 22.8011 26.7361C22.6952 26.9919 22.5157 27.2105 22.2855 27.3643C22.0552 27.5181 21.7845 27.6002 21.5077 27.6001Z" fill="white"/>
</svg>


