<svg width="103" height="67" viewBox="0 0 103 67" fill="none" xmlns="http://www.w3.org/2000/svg">
<g filter="url(#filter0_i_232_239)">
<path fill-rule="evenodd" clip-rule="evenodd" d="M10.6959 25.7415L102.999 49.8654L14.6649 38.7787L0.961967 52.3873L10.6959 25.7415Z" fill="#BEB58E"/>
<path d="M0.96199 52.3873L18.6338 51.8159L14.6649 38.7787L0.96199 52.3873Z" fill="#716B44"/>
<path d="M3.37199 1.83789L98.258 48.1095L11.0859 25.3264L3.37199 1.83789Z" fill="#EEECDB" stroke="#BEB58E"/>
<path d="M99.996 49.9929L23.5138 66.2423L15.3663 39.3704L99.996 49.9929Z" fill="#EEECDB" stroke="#BEB58E"/>
<path d="M63.1573 44.8692C62.5282 50.9872 54.8525 56.2551 45.4675 56.5971C31.0961 57.1209 24.5543 48.4835 24.5543 40.0138L63.1573 44.8692Z" fill="#FFD84E"/>
<path d="M29.8242 55.6168L24.4309 62.4604" stroke="#FFCD4E" stroke-width="2" stroke-linecap="round"/>
<path d="M23.0824 44.324L18.2541 44.5454" stroke="#FFCD4E" stroke-width="2" stroke-linecap="round"/>
<path d="M75.6971 49.5598L66.8998 47.5616" stroke="#FFCD4E" stroke-width="2" stroke-linecap="round"/>
<path d="M46.8174 57.8498L46.9598 60.2278" stroke="#FFCD4E" stroke-width="2" stroke-linecap="round"/>
<path d="M61.3368 53.18L64.4567 56.3923" stroke="#FFCD4E" stroke-width="2" stroke-linecap="round"/>
<path d="M22.7828 28.9015C27.8546 24.3351 35.4204 25.6458 42.5842 27.5272C48.3466 29.0405 59.7531 34.4422 61.1833 38.9398L22.7828 28.9015Z" fill="#FFD84E"/>
<path d="M22.7828 39.7886C21.9709 37.9064 21.8417 32.1861 22.7828 28.9015L61.1833 38.9398C61.6317 40.9 61.5406 43.4381 61.1836 44.611L22.7828 39.7886Z" fill="#C5992A"/>
<path d="M26.5876 23.7001L21.0089 15.5162" stroke="#FFCD4E" stroke-width="2" stroke-linecap="round"/>
<path d="M64.9253 33.0131L60.4538 34.6688" stroke="#FFCD4E" stroke-width="2" stroke-linecap="round"/>
<path d="M52.9948 27.1856L51.8647 28.8211" stroke="#FFCD4E" stroke-width="2" stroke-linecap="round"/>
<path d="M39.7395 21.7083L39.764 24.1641" stroke="#FFCD4E" stroke-width="2" stroke-linecap="round"/>
<path d="M12.1264 18.2069C12.9009 18.4424 12.2867 19.1902 11.5121 18.9547C10.8605 18.5697 11.3519 17.9715 12.1264 18.2069Z" fill="#E0CAEF"/>
<path d="M27.5422 16.5416C27.896 16.6492 27.6155 16.9908 27.2617 16.8832C26.9641 16.7073 27.1884 16.4341 27.5422 16.5416Z" fill="#E0CAEF"/>
<path d="M22.4327 49.8952C23.2072 50.1306 22.5929 50.8784 21.8184 50.643C21.1668 50.2579 21.6582 49.6597 22.4327 49.8952Z" fill="#E0CAEF"/>
<path d="M18.1652 23.4108C18.4234 23.4893 18.4234 23.4893 18.1652 23.4108C18.8293 24.1734 17.1699 24.2296 17.0221 23.624C17.0221 23.624 17.145 23.4744 16.8869 23.396C16.6162 22.9399 18.1528 23.0332 18.1652 23.4108Z" fill="#E0CAEF"/>
<path d="M79.4866 40.4496C79.7448 40.5281 79.7448 40.5281 79.4866 40.4496C80.1507 41.2123 78.4913 41.2685 78.3435 40.6628C78.3435 40.6628 78.4664 40.5133 78.2082 40.4348C77.9376 39.9787 79.4741 40.072 79.4866 40.4496Z" fill="#E0CAEF"/>
<path d="M84.1065 49.2508C84.3694 49.2381 84.3694 49.2381 84.1065 49.2508C85.1961 49.9891 83.92 50.8418 83.3562 50.078C83.3562 50.078 83.3435 49.815 83.0807 49.8277C82.5296 49.327 83.8183 48.7374 84.1065 49.2508Z" fill="#E0CAEF"/>
<path d="M14.3811 10.6801C14.6392 10.7586 14.6392 10.7586 14.3811 10.6801C15.0452 11.4427 13.3857 11.4989 13.238 10.8933C13.238 10.8933 13.3609 10.7437 13.1027 10.6652C12.8321 10.2091 14.3686 10.3025 14.3811 10.6801Z" fill="#E0CAEF"/>
<path d="M73.4643 52.9075C74.2528 52.8694 74.3037 53.9216 73.5152 53.9597C72.7267 53.9978 72.6758 52.9457 73.4643 52.9075Z" fill="#E0CAEF"/>
<path d="M32.4629 18.4859C33.4479 18.4383 33.5113 19.7526 32.5264 19.8003C31.5414 19.8479 31.4779 18.5336 32.4629 18.4859Z" fill="#E0CAEF"/>
<path d="M33.7985 59.7017C34.587 59.6636 34.6379 60.7157 33.8494 60.7539C33.0609 60.792 33.01 59.7398 33.7985 59.7017Z" fill="#E0CAEF"/>
<path d="M67.1457 37.3874C67.9202 37.6228 67.4288 38.221 66.6543 37.9856C65.8798 37.7501 66.3712 37.1519 67.1457 37.3874Z" fill="#E0CAEF"/>
</g>
<defs>
<filter id="filter0_i_232_239" x="0.961975" y="0.869934" width="102.037" height="69.9568" filterUnits="userSpaceOnUse" color-interpolation-filters="sRGB">
<feFlood flood-opacity="0" result="BackgroundImageFix"/>
<feBlend mode="normal" in="SourceGraphic" in2="BackgroundImageFix" result="shape"/>
<feColorMatrix in="SourceAlpha" type="matrix" values="0 0 0 0 0 0 0 0 0 0 0 0 0 0 0 0 0 0 127 0" result="hardAlpha"/>
<feOffset dy="4"/>
<feGaussianBlur stdDeviation="2"/>
<feComposite in2="hardAlpha" operator="arithmetic" k2="-1" k3="1"/>
<feColorMatrix type="matrix" values="0 0 0 0 0 0 0 0 0 0 0 0 0 0 0 0 0 0 0.25 0"/>
<feBlend mode="normal" in2="shape" result="effect1_innerShadow_232_239"/>
</filter>
</defs>
</svg>
